<svg id="Layer_1" data-name="Layer 1" xmlns="http://www.w3.org/2000/svg" viewBox="0 0 1024 1024"><defs><style>.cls-1{fill:#faaf40;}.cls-2{fill:#fff;}</style></defs><circle class="cls-1" cx="512" cy="512" r="512"/><path class="cls-2" d="M316.65981,385.54791q0-37.53793,24.10457-76.06771,24.09767-38.5278,70.33794-63.81785,46.23336-25.28312,107.87784-25.29,57.29084,0,101.16017,21.1409,43.86243,21.14286,67.76942,57.49533,23.905,36.36135,23.907,79.03139,0,33.59031-13.63291,58.87838A180.30025,180.30025,0,0,1,665.781,480.58315Q647.009,498.95794,598.4067,542.42521a274.28212,274.28212,0,0,0-21.53605,21.53605A87.271,87.271,0,0,0,564.81836,580.955a82.97506,82.97506,0,0,0-6.12493,15.41112q-2.17535,7.70556-6.52009,27.06825-7.51,41.10027-47.02367,41.09632-20.55013,0-34.57623-13.43534-14.03005-13.43139-14.02808-39.91085,0-33.19318,10.27408-57.49731a145.8916,145.8916,0,0,1,27.26583-42.677q16.98483-18.37479,45.83821-43.66484,25.28313-22.12682,36.552-33.39076A113.23421,113.23421,0,0,0,595.443,408.86217a60.67329,60.67329,0,0,0,7.70556-30.03193q0-31.61058-23.51184-53.34619-23.51382-21.72671-60.65659-21.73363-43.47418,0-64.01542,21.93121-20.55013,21.93122-34.77381,64.60816-13.43732,44.65965-50.97525,44.65273-22.1357,0-37.34233-15.60869Q316.65783,403.7271,316.65981,385.54791Zm192.83658,433.094a62.1853,62.1853,0,0,1-42.08421-15.6087q-17.98656-15.60672-17.97964-43.66484,0-24.89488,17.3869-41.88664,17.38494-16.98779,42.677-16.99174,24.89488,0,41.88664,16.99174,16.98483,16.99372,16.99175,41.88664,0,27.663-17.78207,43.46726Q532.81066,818.632,509.49639,818.64188Z"/></svg>