<svg id="Layer_1" data-name="Layer 1" xmlns="http://www.w3.org/2000/svg" viewBox="0 0 1024 1024"><defs><style>.cls-1{fill:#faaf40;}</style></defs><path class="cls-1" d="M605.19276,1024h-186.368a51.20336,51.20336,0,0,1-50.02139-40.24316L347.965,887.296a409.69577,409.69577,0,0,1-78.592-45.41436l-94.0544,29.952a51.19794,51.19794,0,0,1-59.904-23.19355L22.0258,687.30879A51.50737,51.50737,0,0,1,31.90741,623.872l72.96-66.56a414.7376,414.7376,0,0,1,0-90.72641l-72.96-66.4064a51.50735,51.50735,0,0,1-9.88161-63.488l93.184-161.43362a51.20046,51.20046,0,0,1,59.904-23.1936l94.0544,29.952a413.50876,413.50876,0,0,1,38.96318-25.6A420.21274,420.21274,0,0,1,347.965,136.65281l20.8896-96.35841A51.19964,51.19964,0,0,1,418.82479,0h186.368A51.20171,51.20171,0,0,1,655.164,40.2944l21.09438,96.4096a409.25964,409.25964,0,0,1,41.93277,21.40159,389.66432,389.66432,0,0,1,36.65927,24.01282l94.10557-29.952A51.20035,51.20035,0,0,1,908.80882,175.36l93.184,161.43359a51.50423,51.50423,0,0,1-9.88164,63.43682l-72.96,66.56a414.73894,414.73894,0,0,1,0,90.72642l72.96,66.56a51.50411,51.50411,0,0,1,9.88164,63.43681l-93.184,161.43355A51.20478,51.20478,0,0,1,848.956,872.14082l-94.10557-29.952a408.59794,408.59794,0,0,1-37.06884,24.32,418.9875,418.9875,0,0,1-41.472,21.04316L655.164,983.75684A51.20382,51.20382,0,0,1,605.19276,1024ZM511.804,307.2c-113.10693,0-204.799,91.692-204.799,204.8,0,113.10591,91.69205,204.8,204.799,204.8,113.111,0,204.8-91.69409,204.8-204.8C716.604,398.892,624.915,307.2,511.804,307.2Z"/></svg>